<svg id="Icons" height="512" viewBox="0 0 60 60" width="512" xmlns="http://www.w3.org/2000/svg"><path d="m35 34v11c0 1.657-7.611 3-17 3s-17-1.343-17-3v-11z" fill="#537c9f"/><ellipse cx="18" cy="34" fill="#7294b2" rx="17" ry="3"/><path d="m35 19v11c0 1.657-7.611 3-17 3s-17-1.343-17-3v-11z" fill="#537c9f"/><ellipse cx="18" cy="19" fill="#7294b2" rx="17" ry="3"/><path d="m35 4v11c0 1.657-7.611 3-17 3s-17-1.343-17-3v-11z" fill="#537c9f"/><ellipse cx="18" cy="4" fill="#7294b2" rx="17" ry="3"/><circle cx="42" cy="42" fill="#51c0e8" r="17"/><circle cx="42" cy="42" fill="#d9dde3" r="2"/><g fill="#373737"><path d="m42 24a17.9 17.9 0 0 0 -6 1.05v-6.05c0-.817-.582-1.472-1.8-2.019 1.109-.517 1.8-1.166 1.8-1.981v-11c0-3.807-14.994-4-18-4s-18 .193-18 4 14.994 4 18 4c2.325 0 11.816-.117 16-1.931v8.787c-.783.759-6.2 2.144-16 2.144s-15.217-1.385-16-2.144v-5.856a1 1 0 0 0 -2 0v6c0 .815.691 1.464 1.8 1.981-1.218.547-1.8 1.202-1.8 2.019v11c0 .816.691 1.464 1.8 1.982-1.218.546-1.8 1.201-1.8 2.018v11c0 3.808 14.994 4 18 4 2.5 0 5-.1 7.309-.294a17.995 17.995 0 1 0 16.691-24.706zm-14.576 7.481a79.828 79.828 0 0 1 -9.424.519c-9.807 0-15.219-1.384-16-2.143v-8.788c4.184 1.814 13.675 1.931 16 1.931s11.816-.117 16-1.931v4.831a18.1 18.1 0 0 0 -6.576 5.581zm-9.424-25.481c-9.21 0-14.546-1.223-15.808-2 1.262-.777 6.598-2 15.808-2s14.546 1.223 15.808 2c-1.262.777-6.598 2-15.808 2zm0 13a76.326 76.326 0 0 0 12.675-.978 10.558 10.558 0 0 1 3.121.986c-1.28.778-6.61 1.992-15.796 1.992s-14.516-1.214-15.8-1.992a10.558 10.558 0 0 1 3.121-.986 76.326 76.326 0 0 0 12.679.978zm0 15c2.857 0 5.6-.126 8.073-.361a17.885 17.885 0 0 0 -.917 2.074c-2.218.187-4.616.287-7.156.287-9.186 0-14.516-1.214-15.8-1.991a10.517 10.517 0 0 1 3.122-.986 76.29 76.29 0 0 0 12.678.977zm0 13c-9.808 0-15.22-1.385-16-2.144v-8.786c4.184 1.813 13.675 1.93 16 1.93 2.293 0 4.476-.08 6.523-.23a17.441 17.441 0 0 0 .134 8.981c-2.114.16-4.384.249-6.657.249zm24 11a16 16 0 1 1 16-16 16.019 16.019 0 0 1 -16 16z"/><path d="m43 39.184v-5.184a1 1 0 0 0 -2 0v5.184a3 3 0 0 0 -2 2.816 2.951 2.951 0 0 0 .3 1.285l-4.008 4.008a1 1 0 1 0 1.414 1.414l4.009-4.007a2.951 2.951 0 0 0 1.285.3 2.993 2.993 0 0 0 1-5.816zm-1 3.816a.994.994 0 0 1 -.7-.285v-.015l-.012-.008a1 1 0 1 1 .712.308z"/><path d="m42 31a1 1 0 0 0 1-1v-1a1 1 0 0 0 -2 0v1a1 1 0 0 0 1 1z"/><path d="m33.515 32.1a1 1 0 0 0 -1.415 1.415l.707.707a1 1 0 0 0 1.414-1.414z"/><path d="m30 41h-1a1 1 0 0 0 0 2h1a1 1 0 0 0 0-2z"/><path d="m32.808 49.778-.707.707a1 1 0 1 0 1.414 1.415l.707-.707a1 1 0 0 0 -1.414-1.414z"/><path d="m42 53a1 1 0 0 0 -1 1v1a1 1 0 0 0 2 0v-1a1 1 0 0 0 -1-1z"/><path d="m51.192 49.778a1 1 0 0 0 -1.414 1.414l.707.707a1 1 0 0 0 1.415-1.414z"/><path d="m53 42a1 1 0 0 0 1 1h1a1 1 0 0 0 0-2h-1a1 1 0 0 0 -1 1z"/><path d="m50.485 32.1-.707.707a1 1 0 1 0 1.414 1.414l.707-.707a1 1 0 0 0 -1.414-1.414z"/></g></svg>