<?xml version="1.0" standalone="no"?><!DOCTYPE svg PUBLIC "-//W3C//DTD SVG 1.1//EN" "http://www.w3.org/Graphics/SVG/1.1/DTD/svg11.dtd"><svg t="1609310925869" class="icon" viewBox="0 0 1024 1024" version="1.1" xmlns="http://www.w3.org/2000/svg" p-id="2526" xmlns:xlink="http://www.w3.org/1999/xlink" width="200" height="200"><defs><style type="text/css"></style></defs><path d="M928 181c17.673 0 32 14.327 32 32v598c0 17.673-14.327 32-32 32H743v-72h-64v72h-69v-72h-64v72h-69v-72h-64v72h-69v-72h-64v72H96c-17.673 0-32-14.327-32-32V213c0-17.673 14.327-32 32-32h832z m-40 72H136v304h64a8 8 0 0 1 8 8v56a8 8 0 0 1-8 8h-64v142h72v-72h608v72h72V629h-64a8 8 0 0 1-8-8v-56a8 8 0 0 1 8-8h64V253z" fill="#1C6EFF" p-id="2527"></path><path d="M316 325a8 8 0 0 1 8 8v144a8 8 0 0 1-8 8h-64a8 8 0 0 1-8-8V333a8 8 0 0 1 8-8h64z m152 0a8 8 0 0 1 8 8v144a8 8 0 0 1-8 8h-64a8 8 0 0 1-8-8V333a8 8 0 0 1 8-8h64z m152 0a8 8 0 0 1 8 8v144a8 8 0 0 1-8 8h-64a8 8 0 0 1-8-8V333a8 8 0 0 1 8-8h64z m152 0a8 8 0 0 1 8 8v144a8 8 0 0 1-8 8h-64a8 8 0 0 1-8-8V333a8 8 0 0 1 8-8h64z" fill="#44D7B6" p-id="2528"></path></svg>