<?xml version="1.0" standalone="no"?><!DOCTYPE svg PUBLIC "-//W3C//DTD SVG 1.1//EN" "http://www.w3.org/Graphics/SVG/1.1/DTD/svg11.dtd"><svg t="1609334994600" class="icon" viewBox="0 0 1024 1024" version="1.1" xmlns="http://www.w3.org/2000/svg" p-id="4253" xmlns:xlink="http://www.w3.org/1999/xlink" width="200" height="200"><defs><style type="text/css"></style></defs><path d="M512 533.333333c46.933333 0 85.333333 38.4 85.333333 85.333334s-38.4 85.333333-85.333333 85.333333-85.333333-38.4-85.333333-85.333333c0-8.533333 2.133333-14.933333 2.133333-21.333334l-140.8-140.8c-17.066667-17.066667-17.066667-42.666667 0-59.733333 17.066667-17.066667 42.666667-17.066667 59.733333 0l140.8 140.8c8.533333-2.133333 14.933333-4.266667 23.466667-4.266667z m34.133333-424.533333c253.866667 17.066667 460.8 226.133333 475.733334 480 0 4.266667 2.133333 6.4 2.133333 10.666667v4.266666c2.133333 64-8.533333 128-27.733333 187.733334-17.066667 51.2-66.133333 85.333333-121.6 85.333333H149.333333c-53.333333 0-102.4-34.133333-121.6-85.333333C10.666667 736 0 678.4 0 618.666667c0-140.8 59.733333-277.333333 162.133333-373.333334C258.133333 155.733333 379.733333 106.666667 509.866667 106.666667h4.266666c10.666667 0 21.333333 0 32 2.133333z m369.066667 652.8c12.8-38.4 21.333333-78.933333 23.466667-121.6h-64c-23.466667 0-42.666667-19.2-42.666667-42.666667s19.2-42.666667 42.666667-42.666666h59.733333C904.533333 364.8 746.666667 213.333333 554.666667 194.133333V256c0 23.466667-19.2 42.666667-42.666667 42.666667s-42.666667-19.2-42.666667-42.666667V194.133333c-93.866667 8.533333-179.2 49.066667-249.6 113.066667-76.8 72.533333-121.6 166.4-132.266666 268.8H149.333333c23.466667 0 42.666667 19.2 42.666667 42.666667s-19.2 42.666667-42.666667 42.666666H87.466667c4.266667 34.133333 10.666667 68.266667 21.333333 100.266667 6.4 17.066667 23.466667 27.733333 40.533333 27.733333h725.333334c17.066667 0 34.133333-10.666667 40.533333-27.733333z" fill="#2F3CF4" p-id="4254"></path></svg>