<?xml version="1.0" standalone="no"?><!DOCTYPE svg PUBLIC "-//W3C//DTD SVG 1.1//EN" "http://www.w3.org/Graphics/SVG/1.1/DTD/svg11.dtd"><svg t="1609334868957" class="icon" viewBox="0 0 1024 1024" version="1.1" xmlns="http://www.w3.org/2000/svg" p-id="2497" xmlns:xlink="http://www.w3.org/1999/xlink" width="200" height="200"><defs><style type="text/css"></style></defs><path d="M184.764074 145.495722l26.178219 0L210.942293 852.325036l628.293633 0 0 26.178219L184.764074 878.503255 184.764074 145.495722 184.764074 145.495722zM184.764074 145.495722" p-id="2498"></path><path d="M420.37214 459.643562l0 340.325036L263.298731 799.968597 263.298731 616.71697 420.37214 459.643562 420.37214 459.643562zM420.37214 459.643562" p-id="2499"></path><path d="M629.806079 485.821781l0 314.146816L472.732671 799.968597 472.732671 459.643562l78.534658 104.712877L629.806079 485.821781 629.806079 485.821781zM629.806079 485.821781" p-id="2500"></path><path d="M839.235926 328.748373l0 471.220225L682.162518 799.968597 682.162518 459.643562 839.235926 328.748373 839.235926 328.748373zM839.235926 328.748373" p-id="2501"></path><path d="M289.481044 512l-26.182312-26.178219L446.554452 302.570153l104.712877 104.71697 209.43394-183.255721-52.360532-52.357462 130.895189 0 0 130.896212-52.356438-52.357462L551.267329 459.643562 446.554452 354.926592 289.481044 512 289.481044 512zM289.481044 512" p-id="2502"></path></svg>